<?xml version="1.0" standalone="no"?>
<!DOCTYPE svg PUBLIC "-//W3C//DTD SVG 20010904//EN"
 "http://www.w3.org/TR/2001/REC-SVG-20010904/DTD/svg10.dtd">
<svg version="1.0" xmlns="http://www.w3.org/2000/svg"
 width="512.000000pt" height="512.000000pt" viewBox="0 0 512.000000 512.000000"
 preserveAspectRatio="xMidYMid meet">

<g transform="translate(0.000000,512.000000) scale(0.100000,-0.100000)"
fill="#000000" stroke="none">
<path d="M2265 4630 c-214 -29 -446 -128 -645 -276 -97 -73 -263 -237 -341
-339 -39 -49 -85 -109 -103 -132 -41 -50 -99 -185 -100 -233 -1 -33 0 -34 49
-43 27 -4 51 -10 53 -11 1 -2 -8 -41 -22 -87 -34 -121 -50 -252 -44 -377 l5
-108 -29 -17 c-45 -26 -82 -116 -81 -197 0 -61 19 -126 45 -157 9 -11 15 -10
33 7 19 18 24 19 34 6 7 -8 19 -12 26 -9 12 4 14 -9 9 -79 -3 -45 -7 -92 -9
-103 -8 -38 16 -217 41 -302 48 -165 134 -321 208 -375 l41 -30 110 7 c61 4
173 8 251 9 135 3 144 4 209 34 89 42 203 129 251 191 21 28 45 51 54 51 22 0
100 103 87 116 -2 3 -10 -8 -16 -25 -7 -16 -26 -42 -43 -57 -28 -27 -30 -27
-18 -5 6 13 36 60 65 106 53 81 70 95 122 95 31 0 97 -62 122 -113 29 -58 126
-168 208 -233 37 -30 110 -76 162 -102 83 -42 103 -47 171 -50 63 -3 86 0 129
19 l52 22 37 -20 c79 -44 262 -58 329 -26 66 31 154 174 207 335 37 116 49
190 49 325 l0 121 45 38 c79 66 111 179 81 287 -10 36 -29 51 -29 23 0 -7 -7
-19 -15 -26 -8 -7 -15 -21 -15 -32 0 -17 -3 -18 -15 -8 -19 16 -19 82 0 120
14 28 14 30 -9 45 -14 9 -46 20 -73 24 l-48 7 49 8 48 8 -4 156 c-5 132 -10
171 -32 245 -15 49 -33 102 -41 117 -13 25 -13 29 1 34 9 3 27 6 40 6 14 0 34
4 44 10 22 12 18 30 -30 138 -38 84 -50 92 -141 92 -38 0 -58 4 -54 10 3 6 36
10 72 10 58 0 64 2 53 15 -11 13 -29 14 -104 9 -108 -7 -102 11 7 22 37 4 67
10 67 15 0 30 -268 298 -299 300 -9 0 -37 4 -63 8 l-48 8 133 -136 c129 -133
133 -136 171 -133 59 5 40 -21 -23 -31 l-52 -9 -87 84 c-259 249 -575 419
-899 484 -80 16 -92 21 -96 41 -2 12 -2 25 1 28 18 18 215 -17 341 -60 41 -14
76 -23 79 -21 7 7 -207 73 -318 97 -58 13 -106 27 -108 31 -5 10 -258 8 -337
-2z m432 -206 c321 -47 645 -244 802 -487 41 -64 47 -68 73 -63 23 5 30 1 37
-17 5 -12 28 -70 51 -129 l42 -107 41 -3 c39 -3 44 -7 64 -48 46 -93 65 -194
70 -370 l3 -165 -28 -22 c-26 -19 -33 -21 -60 -11 -27 10 -34 9 -52 -7 -20
-18 -21 -18 -37 4 -21 30 -88 61 -135 61 -88 0 -193 -60 -263 -152 -21 -27
-47 -54 -59 -60 -19 -10 -19 -9 3 15 17 19 22 33 18 54 -3 17 6 62 24 114 35
104 37 145 4 73 -26 -59 -79 -101 -137 -110 -33 -6 -37 -10 -47 -51 -7 -24
-24 -56 -38 -69 -19 -18 -24 -27 -15 -36 15 -15 42 -3 42 20 0 10 7 39 15 64
15 41 19 46 70 62 30 9 57 21 60 26 14 23 22 7 13 -23 -7 -23 -20 -37 -39 -44
-36 -14 -42 -62 -9 -70 16 -4 18 -9 10 -24 -6 -10 -19 -23 -29 -29 -16 -8 -18
-7 -14 11 5 19 4 20 -15 8 -13 -8 -21 -22 -19 -37 1 -16 -8 -31 -28 -45 -16
-12 -58 -46 -93 -76 l-64 -54 -495 -1 -496 0 -64 126 c-55 111 -72 134 -125
180 -33 29 -75 67 -93 84 -18 18 -42 35 -54 39 -41 13 -16 80 26 69 18 -5 22
-11 17 -28 -7 -30 20 -54 41 -36 8 7 15 18 15 25 0 6 10 20 21 31 l22 19 -7
-30 c-4 -16 -10 -48 -12 -70 -8 -70 13 -16 25 64 8 48 22 93 41 127 34 59 40
86 8 34 -12 -19 -23 -36 -24 -38 -1 -2 -20 6 -43 17 -22 12 -52 21 -66 21 -14
0 -25 6 -25 13 0 7 36 68 80 136 81 125 88 141 70 141 -28 0 -226 -151 -254
-195 -11 -17 -25 -25 -46 -25 -21 0 -35 -8 -46 -25 -15 -23 -15 -35 -4 -118
16 -113 13 -128 -25 -140 -16 -5 -44 -20 -61 -33 -47 -34 -80 -40 -93 -16 -6
11 -25 25 -42 31 l-32 11 6 173 c6 159 18 249 47 356 l11 41 63 0 63 0 53 121
c43 98 51 125 42 139 -13 22 9 57 102 170 242 290 684 445 1093 384z m-950
-995 c-65 -93 -104 -167 -118 -221 l-11 -48 -64 0 c-35 0 -64 3 -64 6 0 3 11
19 25 36 14 16 28 48 32 71 8 53 62 112 162 178 41 27 76 47 78 45 2 -2 -16
-32 -40 -67z m-19 -230 c26 -7 49 -13 51 -15 2 -2 -8 -21 -22 -43 l-27 -40
-49 25 c-47 25 -49 27 -39 55 11 32 19 34 86 18z m-125 -67 c3 -4 3 -19 0 -35
-5 -25 -9 -27 -54 -27 l-49 0 0 35 0 35 49 0 c28 0 52 -3 54 -8z m-483 -226
c-1 -50 -36 -77 -47 -36 -3 11 -9 20 -14 20 -10 0 -12 53 -3 63 8 8 64 -34 64
-47z m365 -93 c56 -57 118 -163 109 -187 -5 -12 -20 2 -64 57 -64 82 -133 145
-167 153 -36 9 -16 24 32 24 38 0 48 -5 90 -47z m2258 40 c4 -3 -31 -43 -76
-87 -72 -70 -91 -96 -139 -191 -63 -125 -98 -227 -98 -290 0 -60 -11 -106 -23
-98 -6 4 -8 -28 -5 -95 4 -75 9 -104 21 -117 10 -9 17 -27 17 -40 0 -19 -4
-22 -21 -18 -30 8 -50 64 -56 154 -7 95 2 150 22 142 12 -4 15 4 15 38 0 34
-3 40 -11 29 -30 -43 38 182 87 288 69 151 182 292 233 292 15 0 31 -3 34 -7z
m-539 -55 c-10 -13 -21 -25 -24 -28 -7 -7 -12 -40 -6 -40 2 0 17 20 33 45 45
71 43 53 -4 -41 -24 -47 -43 -97 -43 -110 0 -23 -3 -24 -32 -19 -18 3 -55 9
-81 13 l-48 7 48 46 c49 47 165 147 172 148 2 1 -4 -9 -15 -21z m-1820 -29
c29 -23 34 -39 12 -39 -8 0 -24 14 -36 30 -25 35 -14 39 24 9z m2612 -104 c13
17 16 18 24 5 16 -25 11 -48 -12 -64 -30 -22 -35 -20 -42 12 -4 15 -9 36 -12
47 l-5 20 16 -20 c16 -20 16 -20 31 0z m-368 -80 c-6 -14 -13 -23 -15 -21 -5
5 15 46 22 46 3 0 -1 -11 -7 -25z m-962 -18 c-71 -45 -115 -110 -116 -169 0
-27 -1 -28 -60 -28 l-59 0 -12 43 c-16 63 -46 104 -95 133 -24 14 -44 28 -44
30 0 2 91 4 203 3 160 0 198 -3 183 -12z m472 -26 c21 -12 4 -22 -254 -150
-236 -117 -253 -122 -254 -80 0 15 112 94 290 203 74 46 76 46 140 40 36 -3
71 -9 78 -13z m631 -64 c-17 -14 -25 -15 -28 -6 -2 7 7 21 20 32 17 14 25 15
28 6 2 -7 -7 -21 -20 -32z m-1456 13 c15 -7 27 -21 27 -30 0 -17 -71 -89 -202
-203 -66 -58 -68 -59 -103 -47 -29 9 -39 9 -52 -2 -14 -11 -15 -11 -5 7 16 30
289 298 299 293 4 -2 20 -10 36 -18z m1535 -82 c17 -17 15 -58 -3 -58 -18 0
-37 34 -29 54 7 19 16 20 32 4z m-2550 -51 c3 -21 -1 -27 -17 -27 -20 0 -37
32 -27 49 12 19 41 4 44 -22z m1623 -78 c-204 -100 -255 -121 -219 -91 18 14
421 201 433 201 6 0 -91 -50 -214 -110z m-401 67 c0 -2 -18 -6 -39 -8 -22 -2
-37 0 -35 4 5 8 74 11 74 4z m-775 -68 c37 -131 15 -358 -34 -358 -17 0 -17 4
-4 53 14 51 13 199 -3 320 -5 38 -4 47 8 47 10 0 22 -22 33 -62z m1060 2 c-55
-27 -104 -49 -110 -49 -13 1 187 98 200 97 6 0 -35 -22 -90 -48z m980 20 c-4
-12 -9 -19 -12 -17 -3 3 -2 15 2 27 4 12 9 19 12 17 3 -3 2 -15 -2 -27z m-775
-25 c-36 -19 -69 -34 -75 -34 -5 0 19 15 55 34 36 19 70 34 75 34 6 0 -19 -15
-55 -34z m-180 -85 c-52 -27 -99 -49 -105 -49 -5 0 33 22 85 49 52 27 100 49
105 49 6 0 -33 -22 -85 -49z m95 -2 c-120 -62 -185 -89 -185 -78 0 6 6 10 13
11 6 0 62 24 122 54 129 63 166 72 50 13z m-15 -53 c-69 -35 -129 -64 -135
-64 -5 0 46 29 115 64 69 35 130 64 135 64 6 0 -46 -29 -115 -64z m56 -21
c-92 -47 -170 -83 -173 -80 -5 5 316 165 332 165 6 0 -66 -38 -159 -85z m136
6 c-45 -28 -250 -130 -259 -130 -11 0 270 149 282 149 6 1 -5 -8 -23 -19z
m-1092 -175 c35 -36 62 -65 59 -65 -2 0 -34 29 -69 65 -35 36 -62 65 -59 65 2
0 34 -29 69 -65z m-35 -15 c33 -33 57 -60 54 -60 -2 0 -31 27 -64 60 -33 33
-57 60 -54 60 2 0 31 -27 64 -60z m-25 -26 c30 -31 46 -52 34 -46 -29 15 -107
102 -91 102 1 0 27 -25 57 -56z m-20 -31 c35 -35 38 -41 15 -26 -37 26 -82 73
-69 73 5 0 30 -21 54 -47z m-4 -50 c-8 -8 -36 11 -51 34 -17 25 -17 25 18 -3
20 -15 35 -30 33 -31z m-61 7 c10 -11 16 -20 13 -20 -3 0 -13 9 -23 20 -10 11
-16 20 -13 20 3 0 13 -9 23 -20z"/>
<path d="M2795 4017 c-61 -21 -97 -42 -130 -78 -27 -29 -24 -28 23 9 61 48
104 62 185 62 97 0 178 -53 229 -150 19 -38 23 -60 23 -140 0 -81 -4 -102 -25
-143 -50 -98 -234 -238 -278 -211 -9 6 -35 37 -57 70 -42 61 -105 104 -152
104 -13 0 -64 -15 -113 -34 -49 -19 -116 -40 -149 -47 -52 -10 -64 -9 -85 5
-59 38 -126 179 -126 265 0 83 49 181 105 211 14 7 23 15 21 17 -10 10 -67
-30 -105 -73 -79 -90 -90 -204 -31 -318 17 -33 28 -61 26 -64 -3 -2 -24 5 -47
17 -23 12 -44 19 -47 16 -3 -3 9 -21 28 -40 35 -36 103 -65 153 -65 17 0 48
-14 76 -34 25 -18 65 -43 89 -55 49 -25 182 -61 221 -61 14 1 -16 12 -66 25
-89 23 -180 64 -233 105 l-25 20 30 0 c17 0 75 12 130 26 55 15 114 28 131 31
47 7 99 -20 129 -67 27 -43 77 -80 109 -80 39 0 138 64 200 130 85 91 118 160
124 259 5 89 -12 141 -67 204 -65 73 -207 113 -296 84z m-549 -564 c-7 -7 -26
7 -26 19 0 6 6 6 15 -2 9 -7 13 -15 11 -17z"/>
<path d="M2780 3481 c-22 -43 30 -100 65 -71 18 15 20 61 3 78 -18 18 -56 14
-68 -7z"/>
<path d="M2137 3153 c-4 -21 -9 -54 -13 -73 -5 -24 -3 -32 4 -25 5 6 13 38 17
73 8 67 1 86 -8 25z"/>
<path d="M3102 3077 c-18 -50 -34 -60 -66 -46 -34 16 -59 -4 -49 -39 5 -20 11
-23 34 -20 33 5 33 7 17 -27 -11 -24 -16 -26 -49 -21 -21 3 -44 8 -52 11 -10
4 -19 -8 -32 -42 -10 -26 -22 -52 -26 -57 -13 -14 -11 -28 3 -24 6 2 19 26 28
54 15 47 16 49 50 46 47 -4 56 -16 37 -45 -12 -19 -22 -23 -44 -20 -27 4 -27
4 -9 -11 27 -21 32 -20 54 12 34 48 123 233 120 249 -2 9 -9 0 -16 -20z"/>
<path d="M2761 3082 c-6 -11 -13 -39 -15 -63 -3 -24 -3 -36 0 -26 6 20 9 20
34 7 41 -22 50 49 10 85 -17 16 -19 15 -29 -3z"/>
<path d="M1864 3035 c-7 -17 4 -37 17 -30 12 8 12 45 -1 45 -6 0 -13 -7 -16
-15z"/>
<path d="M1985 2990 c-24 -26 -22 -106 3 -140 22 -29 85 -49 110 -34 29 19 35
39 28 97 -7 54 -10 59 -46 77 -49 25 -72 25 -95 0z"/>
<path d="M2646 2973 c-3 -3 -6 -15 -6 -26 0 -13 5 -17 16 -13 9 3 22 6 30 6 9
0 12 4 9 10 -9 15 -41 30 -49 23z"/>
<path d="M3070 4480 c8 -5 20 -10 25 -10 6 0 3 5 -5 10 -8 5 -19 10 -25 10 -5
0 -3 -5 5 -10z"/>
<path d="M3327 4349 c12 -15 73 -53 73 -46 0 2 -19 17 -42 32 -24 16 -38 22
-31 14z"/>
<path d="M2802 1824 c-53 -27 -119 -110 -173 -218 -28 -55 -52 -102 -54 -104
-2 -2 -13 14 -24 36 -46 90 -115 142 -191 142 -98 0 -120 -102 -38 -177 40
-37 201 -124 251 -135 42 -10 51 -9 75 8 36 27 198 227 240 298 40 64 52 126
29 144 -25 21 -79 24 -115 6z"/>
<path d="M3079 1737 c-37 -25 -76 -77 -85 -114 -14 -55 39 -113 103 -113 72 0
140 87 130 164 -11 78 -81 108 -148 63z m85 -22 c10 -27 -4 -42 -52 -53 -26
-6 -55 -14 -64 -17 -30 -12 -21 15 18 51 38 36 87 46 98 19z"/>
<path d="M1968 1684 c5 -11 13 -42 17 -70 l7 -52 -36 -12 c-96 -31 -126 -158
-54 -230 24 -24 38 -30 74 -30 l44 0 0 -40 c0 -30 7 -48 31 -74 41 -47 84 -55
144 -26 98 48 113 169 35 285 -28 41 -207 222 -249 251 -22 16 -23 16 -13 -2z
m259 -371 c-3 -5 -23 -10 -44 -11 -21 -2 -47 -5 -58 -9 -39 -11 -3 12 43 28
44 16 71 12 59 -8z"/>
<path d="M1668 1480 c-9 -13 -24 -20 -45 -20 -56 0 -82 -49 -44 -84 38 -34
117 17 93 60 -7 13 -6 25 5 41 8 13 13 23 9 23 -3 0 -11 -9 -18 -20z"/>
<path d="M2028 920 c-138 -9 -262 -26 -286 -39 -56 -31 218 -76 550 -90 459
-19 1048 20 1048 70 0 17 -50 29 -184 45 -150 18 -913 27 -1128 14z"/>
</g>
</svg>
